<svg xmlns="http://www.w3.org/2000/svg" viewBox="0 0 28 28"><defs><style>.cls-1{fill:#02a297;}.cls-2{fill:#fff;}</style></defs><g id="图层_2" data-name="图层 2"><g id="图层_1-2" data-name="图层 1"><circle class="cls-1" cx="14" cy="14" r="14"/><path class="cls-2" d="M20.88,23.43H7.58a2.86,2.86,0,0,1-2.85-2.85V5.38a1,1,0,0,1,.95-1H19a.94.94,0,0,1,.95,1V12h3.8v8.55A2.85,2.85,0,0,1,20.88,23.43Zm-.95-9.5v6.65a1,1,0,1,0,1.9,0V13.93ZM7.58,8.23v5.7h5.7V8.23Zm0,6.65v1.9h9.5v-1.9Zm0,2.85v1.9h9.5v-1.9Zm1.9-7.6h1.9V12H9.48Z"/></g></g></svg>